# xmcd
#
# Track frame offsets:
#	150
#	24486
#	47944
#	63868
#	76804
#	91230
#	115295
#	129218
#	166660
#	182185
#	200227
#	218246
#	239845
#	251751
#	268027
#	278474
#	299792
#	322233
#	333375
#
# Disc length: 4771 seconds
# Revision: 1
# Processed by: cddbd v1.5.2PL0 Copyright (c) Steve Scherf et al.
# Submitted via: dBpowerAMP V12.0
#
DISCID=2512a113
DTITLE=Various Artist - The real blues: The ultimate collection CD3
DYEAR=1967
DGENRE=Blues
TTITLE0=Muddy Waters - Mannish boy
TTITLE1=Otis Spann - Ain't nobody's business
TTITLE2=Buddy Guy - Lucy Mae blues
TTITLE3=Fleetwood Mac [original blues lineup] - Black magic woman
TTITLE4=Johnny "Guitar" Watson - Unchain my heart
TTITLE5=Michael Bloomfield - Mary Ann [live]
TTITLE6=The Fabulous Thunderbirds - Down at antones
TTITLE7=Johnny Winter - Mean town blues [live]
TTITLE8=Chris Whitley - Poison girl
TTITLE9=Stevie Ray Vaughan and Double Trouble - Cold shot
TTITLE10=Jimmie Vaughan - Motor head baby
TTITLE11=The Electric Flag - Texas
TTITLE12=Taj Mahal - Chevrolet
TTITLE13=Bob Dylan - Dirt road blues
TTITLE14=Keb' Mo' - Am I wrong
TTITLE15=Alvin Youngblood Hart - Gallows pole
TTITLE16=Etta James - I'll take care of you
TTITLE17=Percy Mayfield - The country
TTITLE18=Muddy Waters - Sad, sad day
EXTD=
EXTT0=
EXTT1=
EXTT2=
EXTT3=
EXTT4=
EXTT5=
EXTT6=
EXTT7=
EXTT8=
EXTT9=
EXTT10=
EXTT11=
EXTT12=
EXTT13=
EXTT14=
EXTT15=
EXTT16=
EXTT17=
EXTT18=
PLAYORDER=
